<?xml version="1.0" encoding="UTF-8"?>
<svg id="Layer_1" xmlns="http://www.w3.org/2000/svg" version="1.1" viewBox="0 0 1100 1100">
  <!-- Generator: Adobe Illustrator 29.6.1, SVG Export Plug-In . SVG Version: 2.1.1 Build 9)  -->
  <defs>
    <style>
      .st0 {
        fill: #fff;
      }
    </style>
  </defs>
  <path d="M928.4,391.4c-5.8,4.5-108.4,62.3-108.4,190.9s130.6,201.3,134.5,202.6c-.6,3.2-20.7,72-68.8,142.2-42.9,61.7-87.7,123.3-155.8,123.3s-85.7-39.6-164.3-39.6-103.9,40.9-166.2,40.9-105.8-57.1-155.8-127.3c-57.9-82.4-104.7-210.3-104.7-331.8,0-194.8,126.7-298.1,251.3-298.1s121.4,43.5,163,43.5,101.3-46.1,176.7-46.1,131.2,2.6,198.7,99.4h0ZM693.9,209.5c31.2-37,53.2-88.3,53.2-139.6s-.6-14.3-1.9-20.1c-50.7,1.9-111,33.8-147.4,76-28.6,32.5-55.2,83.8-55.2,135.8s1.3,15.6,1.9,18.1c3.2.6,8.4,1.3,13.6,1.3,45.5,0,102.7-30.5,135.8-71.4h0Z"/>
  <path class="st0" d="M745.2,49.8c1.3,5.8,1.9,13,1.9,20.1,0,51.3-22,102.6-53.2,139.6-33.1,41-90.3,71.4-135.8,71.4s-10.4-.7-13.6-1.3c-.6-2.5-1.9-10.3-1.9-18.1,0-52,26.7-103.3,55.2-135.8,36.4-42.2,96.7-74,147.4-76M729.7,292c28.6,0,131.2,2.6,198.7,99.4-5.8,4.5-108.4,62.3-108.4,190.9s130.6,201.3,134.5,202.6c-.6,3.2-20.7,72-68.8,142.2-42.9,61.7-87.7,123.3-155.8,123.3s-85.7-39.6-164.3-39.6-103.9,40.9-166.2,40.9-105.8-57.1-155.8-127.3c-57.9-82.4-104.7-210.3-104.7-331.8,0-194.8,126.7-298.1,251.3-298.1s121.4,43.5,163,43.5,101.3-46.1,176.7-46.1M783.5,0l-40.2,1.5c-31.8,1.2-66.2,11-99.5,28.3-32,16.6-60.6,38.8-82.5,64.2-18.6,21.1-34.5,46.4-46.1,72.9-13.9,31.8-20.9,63.6-20.9,94.6s.1,5.6.3,8.3c-29.5-11.6-64.6-23.6-104.6-23.6s-75.5,7.8-111,23.2c-36.4,15.7-68.8,38.6-96.5,68-29,30.8-51.6,67.7-67.3,109.6-16.4,44.1-24.8,93.1-24.8,145.6s11.4,130,33.1,195.7c20.1,60.9,47.9,117.6,80.4,163.9h0c0,.1,0,.3,0,.3,26.9,37.8,51.5,71.2,79.8,97.4,36.5,33.8,74.2,50.2,115.3,50.2s67.8-12.1,92.9-22.7c23-9.8,42.9-18.2,73.4-18.2s47.7,7.4,69.2,16.8c23.2,10.1,52.2,22.8,95.1,22.8s46-5.1,67.5-15.1c18.2-8.5,35.4-20.3,52.6-36.2,28.1-25.9,50.7-57.3,75.4-92.8h0c0-.1,0-.2,0-.2,15.1-22,37.2-58,56.9-104.7,11.3-26.8,18.3-48.8,19.6-55.9l7.8-41.4-38.8-12.9c-3.9-1.7-29.6-13.2-54.5-38.2-32-32.1-48.2-72.2-48.2-119s12.2-74.9,36.3-105.5c19.5-24.8,40.8-38.7,47.8-43.3,2-1.3,3.7-2.4,5.6-3.9l36.3-28.1-26.3-37.7c-54-77.4-138.7-120.1-238.3-120.1s-.9,0-1.4,0c1-1.1,1.9-2.3,2.8-3.4,19-22.7,34.9-49.4,46-77.4,12.1-30.8,18.3-62,18.3-92.9s-.5-19.4-3.1-30.7l-8.8-39.2h0Z"/>
</svg>