<?xml version="1.0" encoding="UTF-8"?>
<svg id="Layer_1" xmlns="http://www.w3.org/2000/svg" version="1.1" viewBox="0 0 32 32">
  <!-- Generator: Adobe Illustrator 29.6.1, SVG Export Plug-In . SVG Version: 2.1.1 Build 9)  -->
  <defs>
    <style>
      .st0 {
        isolation: isolate;
        opacity: .5;
      }

      .st1 {
        fill: #0a2d4d;
      }

      .st2 {
        fill: #fff;
      }

      .st3 {
        fill: #198cff;
      }
    </style>
  </defs>
  <path class="st0" d="M16,0C7.2,0,0,7.2,0,16s7.2,16,16,16,16-7.2,16-16S24.8,0,16,0ZM16,1.1c8.2,0,14.9,6.7,14.9,14.9s-6.7,14.9-14.9,14.9S1.1,24.2,1.1,16,7.8,1.1,16,1.1Z"/>
  <path class="st2" d="M16,1.1c8.2,0,14.9,6.7,14.9,14.9s-6.7,14.9-14.9,14.9S1.1,24.2,1.1,16,7.8,1.1,16,1.1Z"/>
  <path class="st1" d="M13.9,10.1c0-.3.2-.5.5-.5h3.2c.3,0,.5.2.5.5v6c0,.3-.2.7-.4.9l-.3.2c-.2.2-.2.5,0,.7l.3.3c.2.2.4.6.4.9v2.7c0,.3-.2.5-.5.5h-3.2c-.3,0-.5-.2-.5-.5v-5.9c0-.3.2-.7.4-.9l.3-.3c.2-.2.2-.5,0-.7l-.3-.3c-.2-.2-.4-.6-.4-.9v-2.7Z"/>
  <path class="st3" d="M16,4.3c6.5,0,11.7,5.3,11.7,11.7s-5.3,11.7-11.7,11.7-11.7-5.3-11.7-11.7,5.3-11.7,11.7-11.7ZM16,7.5c-4.7,0-8.5,3.8-8.5,8.5s3.8,8.5,8.5,8.5,8.5-3.8,8.5-8.5-3.8-8.5-8.5-8.5Z"/>
</svg>