<?xml version="1.0" encoding="UTF-8"?>
<svg id="Layer_1" xmlns="http://www.w3.org/2000/svg" xmlns:xlink="http://www.w3.org/1999/xlink" version="1.1" viewBox="0 0 103 103">
  <!-- Generator: Adobe Illustrator 29.6.1, SVG Export Plug-In . SVG Version: 2.1.1 Build 9)  -->
  <defs>
    <style>
      .st0 {
        fill: none;
      }

      .st1 {
        fill: #fff;
      }

      .st2 {
        fill: aqua;
      }

      .st3 {
        clip-path: url(#clippath);
      }
    </style>
    <clipPath id="clippath">
      <rect class="st0" x="6.5" y="37.5" width="90" height="28"/>
    </clipPath>
  </defs>
  <rect width="103" height="103"/>
  <g class="st3">
    <g>
      <path class="st1" d="M26.5,37.5l5.2,15.8v12.2h-6.3v-11.5h-12.5v11.5h-6.3v-28h6.3v11h12.5v-11h1.2ZM71.1,37.5l-9,28h-6.8l-6-18.9-6.2,18.9h-6.8l-9-28h6.6l6.2,19.7,6.5-19.7h5.9l6.3,19.8,6.4-19.8h6.1Z"/>
      <path class="st2" d="M72.1,49.3v4.3h24.4v-4.3s-24.4,0-24.4,0Z"/>
      <path class="st2" d="M86.4,39h-4.2v24.9h4.2v-24.9Z"/>
    </g>
  </g>
</svg>