<?xml version="1.0" encoding="UTF-8" standalone="no"?>
<!DOCTYPE svg PUBLIC "-//W3C//DTD SVG 1.1//EN" "http://www.w3.org/Graphics/SVG/1.1/DTD/svg11.dtd">
<svg width="100%" height="100%" viewBox="0 0 700 700" version="1.1" xmlns="http://www.w3.org/2000/svg"
  xmlns:xlink="http://www.w3.org/1999/xlink" xml:space="preserve" xmlns:serif="http://www.serif.com/"
  style="fill-rule:evenodd;clip-rule:evenodd;stroke-linejoin:round;stroke-miterlimit:2;">
  <g id="gsap-dark" transform="matrix(1.12556,0,0,2.03547,-4.51026,-551.247)">
    <rect x="4.007" y="270.821" width="621.914" height="343.902" style="fill:none;" />
    <clipPath id="_clip1">
      <rect x="4.007" y="270.821" width="621.914" height="343.902" />
    </clipPath>
    <g clip-path="url(#_clip1)">
      <g id="background" transform="matrix(0.9676,0,0,0.534651,1.72763,271.188)">
        <rect x="2.356" y="-0.687" width="642.739" height="643.226" style="fill:rgb(14,16,15);" />
      </g>
      <g id="logo" transform="matrix(0.921429,0,0,0.921429,22.1838,9.06893)">
        <g transform="matrix(0.964208,0,0,0.533181,17.6168,409.103)">
          <path
            d="M181.426,107.888L181.426,107.989L173.234,143.914C172.792,145.946 170.785,147.436 168.463,147.436L158.579,147.436C157.847,147.436 157.19,147.928 156.988,148.635C147.862,179.927 135.504,201.437 119.183,214.35C105.297,225.345 88.181,230.47 65.32,230.47C44.77,230.47 30.923,223.792 19.171,210.614C3.645,193.194 -2.78,164.679 1.108,130.319C8.126,65.816 41.223,0.732 104.982,0.732C124.371,0.555 139.594,6.602 150.185,18.669C161.381,31.431 167.074,50.656 167.099,75.813C167.061,78.098 165.181,79.941 162.921,79.941L116.216,79.941C114.563,79.941 113.086,78.439 113.111,76.785C112.732,59.391 107.62,50.908 97.471,50.908C79.572,50.908 69.006,75.473 63.402,89.093C55.576,108.115 51.599,128.767 52.382,149.342C52.748,158.923 54.275,172.392 63.276,177.971C71.253,182.919 82.639,179.637 89.531,174.159C96.423,168.68 101.965,159.201 104.3,150.554C104.628,149.355 104.654,148.421 104.338,148.004C104.01,147.575 103.101,147.474 102.407,147.474L90.415,147.474C89.127,147.474 87.852,146.881 87.082,145.921C86.439,145.113 86.186,144.116 86.413,143.132L94.618,107.143C95.022,105.301 96.676,103.912 98.708,103.66L98.708,103.571L177.412,103.571C177.602,103.571 177.791,103.571 177.968,103.609C180.013,103.874 181.452,105.793 181.414,107.888L181.426,107.888Z"
            style="fill:rgb(255,252,225);fill-rule:nonzero;" />
        </g>
        <g transform="matrix(0.964208,0,0,0.533181,17.6168,409.103)">
          <path
            d="M316.946,66.599C316.908,68.846 315.027,70.689 312.768,70.689L269.749,70.689C266.934,70.689 264.573,68.379 264.573,65.564C264.573,52.878 260.231,46.705 251.345,46.705C242.458,46.705 236.727,52.221 236.563,61.853C236.374,72.595 242.382,82.352 259.499,99.128C282.031,120.486 291.056,139.408 290.627,164.414C289.92,204.858 262.705,231 221.302,231C200.158,231 184.001,225.282 173.259,214.01C162.353,202.56 157.354,185.759 158.402,164.073C158.452,161.826 160.32,159.996 162.58,159.996L207.076,159.996C208.288,159.996 209.487,160.589 210.295,161.599C210.989,162.47 211.279,163.543 211.103,164.553C210.61,172.379 211.961,178.223 215.003,181.455C216.96,183.55 219.674,184.611 223.069,184.611C231.287,184.611 236.109,178.741 236.285,168.516C236.437,159.68 233.672,151.93 218.601,136.265C199.136,117.04 181.678,97.184 182.221,65.955C182.537,47.854 189.656,31.292 202.267,19.326C215.596,6.678 233.837,0 255.005,0C276.212,0.151 292.281,6.261 302.77,18.164C312.705,29.449 317.489,45.746 316.959,66.599L316.946,66.599Z"
            style="fill:rgb(255,252,225);fill-rule:nonzero;" />
        </g>
        <g transform="matrix(0.964208,0,0,0.533181,17.6168,409.103)">
          <path
            d="M450.295,223.388L450.572,8.306C450.61,6.047 448.805,4.204 446.546,4.204L379.96,4.204C377.725,4.204 376.741,6.147 376.097,7.435L279.696,222.076L279.696,222.114C279.696,222.114 279.67,222.151 279.658,222.164C278.585,224.802 280.617,227.63 283.445,227.63L329.985,227.63C332.497,227.63 334.164,226.86 334.984,225.257L344.224,202.813C345.36,199.821 345.575,199.544 348.806,199.544L393.277,199.544C396.369,199.544 396.433,199.607 396.382,202.662L395.385,223.527C395.347,225.787 397.152,227.63 399.412,227.63L446.432,227.63C447.631,227.63 448.755,227.125 449.499,226.229C450.168,225.433 450.446,224.424 450.295,223.388ZM367.917,151.577C367.488,151.577 367.147,151.564 366.87,151.539C366.175,151.476 365.708,150.807 365.885,150.125C365.973,149.809 366.1,149.393 366.289,148.875L399.639,65.501C399.929,64.68 400.295,63.872 400.674,63.09C401.217,61.966 401.873,61.89 402.075,62.724C402.252,63.418 398.25,148.332 398.25,148.332C397.935,151.513 397.796,151.64 394.691,151.905L367.955,151.589L367.892,151.589L367.917,151.577Z"
            style="fill:rgb(255,252,225);fill-rule:nonzero;" />
        </g>
        <g transform="matrix(0.964208,0,0,0.533181,17.6168,409.103)">
          <path
            d="M545.143,4.204L509.799,4.204C507.931,4.204 505.835,5.201 505.343,7.448C505.343,7.448 456.151,223.25 456.151,223.275C455.937,224.272 456.164,225.257 456.82,226.077C457.59,227.036 458.865,227.63 460.153,227.63L504.333,227.63C506.706,227.63 508.335,226.456 508.776,224.411C508.776,224.411 514.128,200.023 514.141,199.948C514.52,198.042 513.863,196.565 512.172,195.668C511.377,195.252 510.581,194.835 509.799,194.419L502.137,190.392L494.512,186.378C493.528,185.86 492.543,185.343 491.571,184.825C491.079,184.573 490.776,184.068 490.789,183.513C490.801,182.692 491.483,182.023 492.303,182.023L516.514,182.137C523.76,182.174 531.005,181.657 538.125,180.332C588.263,170.978 621.562,130.395 622.522,75.182C623.342,28.061 597.314,4.178 545.181,4.178L545.143,4.204ZM533.113,132.642L532.167,132.642C530.046,132.642 529.667,132.402 529.604,132.326C529.566,132.276 543.565,70.171 543.578,70.083C543.931,68.29 543.919,67.255 542.82,66.649C541.419,65.867 520.983,54.973 520.983,54.973C520.49,54.708 520.2,54.203 520.213,53.648C520.225,52.84 520.894,52.171 521.715,52.171L554.03,52.171C564.09,52.486 569.695,61.575 569.43,77.101C568.963,103.988 556.314,131.695 533.113,132.642Z"
            style="fill:rgb(255,252,225);fill-rule:nonzero;" />
        </g>
        <g transform="matrix(0.964208,0,0,0.533181,17.6168,409.103)">
          <path
            d="M581.095,227.63C588.366,227.63 594.058,222.038 594.058,214.502C594.058,206.966 588.366,201.374 581.095,201.374C573.824,201.374 568.068,206.966 568.068,214.502C568.068,222.038 573.811,227.63 581.095,227.63ZM571.16,214.451C571.16,208.052 574.96,203.861 581.095,203.861C587.229,203.861 590.966,208.039 590.966,214.451C590.966,220.864 587.229,225.08 581.095,225.08C574.96,225.08 571.16,220.902 571.16,214.451ZM575.377,221.495L579.529,221.495L579.529,216.446L580.729,216.446C583.821,216.446 582.471,220.902 583.228,221.495L587.507,221.495L587.507,221.28C586.699,221.066 587.999,215.474 584.415,214.881L584.415,214.817C586.157,214.451 587.28,213.189 587.28,211.296C587.28,208.582 585.323,207.117 582.168,207.117L575.377,207.117L575.377,221.495ZM579.529,213.404L579.529,210.033L580.943,210.033C582.357,210.033 583.165,210.475 583.165,211.712C583.165,212.848 582.357,213.391 580.943,213.391L579.529,213.391L579.529,213.404Z"
            style="fill:rgb(255,252,225);fill-rule:nonzero;" />
        </g>
      </g>
    </g>
  </g>
</svg>