<?xml version="1.0" encoding="UTF-8"?>
<svg id="svg5" xmlns="http://www.w3.org/2000/svg" xmlns:svg="http://www.w3.org/2000/svg" xmlns:sodipodi="http://sodipodi.sourceforge.net/DTD/sodipodi-0.dtd" xmlns:rdf="http://www.w3.org/1999/02/22-rdf-syntax-ns#" xmlns:inkscape="http://www.inkscape.org/namespaces/inkscape" xmlns:dc="http://purl.org/dc/elements/1.1/" xmlns:cc="http://creativecommons.org/ns#" version="1.1" viewBox="0 0 1024 1024">
  <!-- Generator: Adobe Illustrator 29.6.1, SVG Export Plug-In . SVG Version: 2.1.1 Build 9)  -->
  <defs>
    <style>
      .st0 {
        fill: #323330;
      }

      .st1 {
        fill: #fff;
      }
    </style>
  </defs>
  <g>
    <rect id="rect20116" class="st0" x="43.9" y="43.9" width="936.2" height="936.2"/>
    <path id="rect201161" data-name="rect20116" class="st1" d="M980.1,43.9v936.2H43.9V43.9h936.2M980.1,0H43.9C19.6,0,0,19.6,0,43.9v936.2c0,24.2,19.6,43.9,43.9,43.9h936.2c24.2,0,43.9-19.6,43.9-43.9V43.9c0-24.2-19.6-43.9-43.9-43.9h0Z"/>
  </g>
  <g id="text4399">
    <path id="path30940" class="st1" d="M206.2,862.9c-1.7,1.7-2.1,5.1,0,7.3,27.3,26.9,65.7,42.3,104.5,42.3,64.9,0,105.8-39.3,105.8-88s-26-66.2-59.7-80.7l-38-15.8c-23.9-9.8-41-16.7-41-34.2s13.2-27.3,38.4-27.3,39.7,8.1,57.2,22.6c2.6,2.1,6,1.3,7.7-.9l25.2-31.6c1.7-1.7,1.7-5.1-.4-7.3-22.6-22.6-55.9-36.7-89.6-36.7-56.7,0-99,35.9-99,83.7s31.1,67.1,59.3,79l38.4,16.7c26,11.1,40.1,17.1,40.1,36.3s-13.2,30.8-43.5,30.8-49.5-12.4-68.7-30.3c-2.6-2.1-6-1.7-7.7.4l-29,33.7Z"/>
    <path id="path30942" class="st1" d="M432,862.9c-1.7,1.7-2.1,5.1,0,7.3,27.3,26.9,65.7,42.3,104.5,42.3,64.9,0,105.8-39.3,105.8-88s-26-66.2-59.7-80.7l-38-15.8c-23.9-9.8-41-16.7-41-34.2s13.2-27.3,38.4-27.3,39.7,8.1,57.2,22.6c2.6,2.1,6,1.3,7.7-.9l25.2-31.6c1.7-1.7,1.7-5.1-.4-7.3-22.6-22.6-55.9-36.7-89.6-36.7-56.7,0-99,35.9-99,83.7s31.1,67.1,59.3,79l38.4,16.7c26,11.1,40.1,17.1,40.1,36.3s-13.2,30.8-43.5,30.8-49.5-12.4-68.7-30.3c-2.6-2.1-6-1.7-7.7.4l-29,33.7Z"/>
    <path id="path30944" class="st1" d="M682,902.2c0,2.1,2.1,5.1,5.5,5.1h49.5c2.1,0,5.1-1.7,5.1-5.1v-118.8h102.8v118.8c0,2.1,1.7,5.1,5.1,5.1h49.5c2.1,0,5.5-1.7,5.5-5.1v-279.4c0-2.1-2.1-5.1-5.5-5.1h-49.5c-2.1,0-5.1,1.7-5.1,5.1v106.8h-102.8v-106.8c0-2.1-1.7-5.1-5.1-5.1h-49.5c-2.1,0-5.5,1.7-5.5,5.1v279.4Z"/>
  </g>
</svg>